<svg width="358" height="140" viewBox="0 0 358 140" fill="none" xmlns="http://www.w3.org/2000/svg">
<path d="M6.97949 5.00586V6.04492H2.5293V15H1.36719V5.00586H6.97949ZM14.1025 15H12.9473V8.45801H10.6709C10.5798 9.63835 10.4635 10.6501 10.3223 11.4932C10.1855 12.3317 10.0124 13.0176 9.80273 13.5508C9.59766 14.0794 9.34701 14.4691 9.05078 14.7197C8.75911 14.9658 8.41048 15.0889 8.00488 15.0889C7.88184 15.0889 7.76562 15.082 7.65625 15.0684C7.54688 15.0547 7.45345 15.0319 7.37598 15V14.1387C7.43522 14.1569 7.49674 14.1706 7.56055 14.1797C7.62891 14.1888 7.69954 14.1934 7.77246 14.1934C7.97754 14.1934 8.16439 14.109 8.33301 13.9404C8.50618 13.7673 8.66113 13.5075 8.79785 13.1611C8.93913 12.8148 9.06445 12.3773 9.17383 11.8486C9.2832 11.3154 9.37891 10.6888 9.46094 9.96875C9.54753 9.24414 9.62272 8.42383 9.68652 7.50781H14.1025V15ZM19.2979 7.38477C20.1911 7.38477 20.8542 7.58529 21.2871 7.98633C21.7201 8.38737 21.9365 9.02767 21.9365 9.90723V15H21.1094L20.8906 13.8926H20.8359C20.6263 14.166 20.4076 14.3962 20.1797 14.583C19.9518 14.7653 19.6875 14.9043 19.3867 15C19.0905 15.0911 18.7259 15.1367 18.293 15.1367C17.8372 15.1367 17.4316 15.057 17.0762 14.8975C16.7253 14.738 16.4473 14.4964 16.2422 14.1729C16.0417 13.8493 15.9414 13.4391 15.9414 12.9424C15.9414 12.195 16.2376 11.6208 16.8301 11.2197C17.4225 10.8187 18.3249 10.5999 19.5371 10.5635L20.8291 10.5088V10.0508C20.8291 9.40365 20.6901 8.9502 20.4121 8.69043C20.1341 8.43066 19.7422 8.30078 19.2363 8.30078C18.8444 8.30078 18.4707 8.35775 18.1152 8.47168C17.7598 8.58561 17.4225 8.72005 17.1035 8.875L16.7549 8.01367C17.0921 7.84049 17.4795 7.69238 17.917 7.56934C18.3545 7.44629 18.8148 7.38477 19.2979 7.38477ZM20.8154 11.3086L19.6738 11.3564C18.7396 11.3929 18.0811 11.5456 17.6982 11.8145C17.3154 12.0833 17.124 12.4639 17.124 12.9561C17.124 13.3844 17.2539 13.7012 17.5137 13.9062C17.7734 14.1113 18.1175 14.2139 18.5459 14.2139C19.2113 14.2139 19.7559 14.0293 20.1797 13.6602C20.6035 13.291 20.8154 12.7373 20.8154 11.999V11.3086ZM30.2285 9.3877C30.2285 9.8571 30.0918 10.224 29.8184 10.4883C29.5449 10.748 29.1917 10.9235 28.7588 11.0146V11.0693C29.2282 11.1331 29.6315 11.3018 29.9688 11.5752C30.3105 11.8441 30.4814 12.2565 30.4814 12.8125C30.4814 13.2409 30.3789 13.6191 30.1738 13.9473C29.9688 14.2754 29.6475 14.5329 29.21 14.7197C28.7725 14.9066 28.2028 15 27.501 15H24.2744V7.50781H27.4736C28.0114 7.50781 28.4854 7.56934 28.8955 7.69238C29.3102 7.81087 29.6361 8.00684 29.873 8.28027C30.11 8.55371 30.2285 8.92285 30.2285 9.3877ZM29.2988 12.8125C29.2988 12.3704 29.1302 12.0514 28.793 11.8555C28.4603 11.6595 27.9749 11.5615 27.3369 11.5615H25.416V14.0771H27.3643C27.9932 14.0771 28.4717 13.9814 28.7998 13.79C29.1325 13.5941 29.2988 13.2682 29.2988 12.8125ZM29.0732 9.51758C29.0732 9.16211 28.9434 8.89779 28.6836 8.72461C28.4238 8.54688 27.9977 8.45801 27.4053 8.45801H25.416V10.6113H27.207C27.8223 10.6113 28.2871 10.5225 28.6016 10.3447C28.916 10.167 29.0732 9.89128 29.0732 9.51758ZM33.4551 7.50781V10.6523H37.6318V7.50781H38.7666V15H37.6318V11.6162H33.4551V15H32.3135V7.50781H33.4551ZM43.9756 7.38477C44.8688 7.38477 45.5319 7.58529 45.9648 7.98633C46.3978 8.38737 46.6143 9.02767 46.6143 9.90723V15H45.7871L45.5684 13.8926H45.5137C45.304 14.166 45.0853 14.3962 44.8574 14.583C44.6296 14.7653 44.3652 14.9043 44.0645 15C43.7682 15.0911 43.4036 15.1367 42.9707 15.1367C42.515 15.1367 42.1094 15.057 41.7539 14.8975C41.403 14.738 41.125 14.4964 40.9199 14.1729C40.7194 13.8493 40.6191 13.4391 40.6191 12.9424C40.6191 12.195 40.9154 11.6208 41.5078 11.2197C42.1003 10.8187 43.0026 10.5999 44.2148 10.5635L45.5068 10.5088V10.0508C45.5068 9.40365 45.3678 8.9502 45.0898 8.69043C44.8118 8.43066 44.4199 8.30078 43.9141 8.30078C43.5221 8.30078 43.1484 8.35775 42.793 8.47168C42.4375 8.58561 42.1003 8.72005 41.7812 8.875L41.4326 8.01367C41.7699 7.84049 42.1572 7.69238 42.5947 7.56934C43.0322 7.44629 43.4925 7.38477 43.9756 7.38477ZM45.4932 11.3086L44.3516 11.3564C43.4173 11.3929 42.7588 11.5456 42.376 11.8145C41.9932 12.0833 41.8018 12.4639 41.8018 12.9561C41.8018 13.3844 41.9316 13.7012 42.1914 13.9062C42.4512 14.1113 42.7952 14.2139 43.2236 14.2139C43.889 14.2139 44.4336 14.0293 44.8574 13.6602C45.2812 13.291 45.4932 12.7373 45.4932 11.999V11.3086ZM49.3145 15H47.9883L50.1484 11.8418C49.834 11.7734 49.5423 11.6572 49.2734 11.4932C49.0046 11.3245 48.7858 11.0944 48.6172 10.8027C48.4531 10.5111 48.3711 10.1488 48.3711 9.71582C48.3711 8.99577 48.6104 8.44889 49.0889 8.0752C49.5719 7.69694 50.2077 7.50781 50.9961 7.50781H54.3115V15H53.1768V11.9922H51.2764L49.3145 15ZM49.4717 9.72266C49.4717 10.1693 49.6312 10.502 49.9502 10.7207C50.2692 10.9349 50.7249 11.042 51.3174 11.042H53.1768V8.45801H51.1191C50.5358 8.45801 50.1143 8.5765 49.8545 8.81348C49.5993 9.0459 49.4717 9.34896 49.4717 9.72266Z" fill="white"/>
<path d="M161.847 7.33691C161.847 7.78353 161.76 8.1709 161.587 8.49902C161.414 8.82715 161.172 9.09603 160.862 9.30566C160.552 9.51074 160.188 9.6543 159.769 9.73633V9.79102C160.562 9.89128 161.156 10.1465 161.553 10.5566C161.954 10.9668 162.154 11.5046 162.154 12.1699C162.154 12.7487 162.018 13.2614 161.744 13.708C161.475 14.1546 161.061 14.5055 160.5 14.7607C159.944 15.0114 159.231 15.1367 158.36 15.1367C157.832 15.1367 157.342 15.0934 156.891 15.0068C156.444 14.9248 156.016 14.7858 155.605 14.5898V13.5234C156.02 13.7285 156.471 13.8903 156.959 14.0088C157.447 14.1227 157.918 14.1797 158.374 14.1797C159.285 14.1797 159.944 13.9997 160.35 13.6396C160.755 13.2751 160.958 12.7783 160.958 12.1494C160.958 11.7165 160.844 11.3678 160.616 11.1035C160.393 10.8346 160.069 10.6387 159.646 10.5156C159.226 10.388 158.72 10.3242 158.128 10.3242H157.13V9.35352H158.135C158.677 9.35352 159.137 9.27376 159.516 9.11426C159.894 8.95475 160.181 8.73145 160.377 8.44434C160.577 8.15267 160.678 7.80859 160.678 7.41211C160.678 6.90625 160.509 6.5166 160.172 6.24316C159.835 5.96517 159.377 5.82617 158.798 5.82617C158.442 5.82617 158.119 5.86263 157.827 5.93555C157.535 6.00846 157.262 6.10872 157.007 6.23633C156.752 6.36393 156.496 6.51204 156.241 6.68066L155.667 5.90137C156.032 5.61882 156.476 5.375 157 5.16992C157.524 4.96484 158.119 4.8623 158.784 4.8623C159.805 4.8623 160.571 5.09473 161.081 5.55957C161.591 6.02441 161.847 6.61686 161.847 7.33691ZM163.781 10.7275C163.781 10.126 163.822 9.53809 163.904 8.96387C163.991 8.38965 164.134 7.85645 164.335 7.36426C164.535 6.86751 164.809 6.43229 165.155 6.05859C165.502 5.6849 165.932 5.39323 166.447 5.18359C166.967 4.9694 167.589 4.8623 168.313 4.8623C168.519 4.8623 168.74 4.8737 168.977 4.89648C169.214 4.91471 169.41 4.94661 169.564 4.99219V5.96973C169.396 5.91048 169.202 5.86719 168.983 5.83984C168.769 5.8125 168.553 5.79883 168.334 5.79883C167.486 5.79883 166.819 5.9834 166.331 6.35254C165.848 6.72168 165.499 7.22298 165.285 7.85645C165.071 8.48535 164.948 9.19401 164.916 9.98242H164.991C165.132 9.75456 165.312 9.54948 165.531 9.36719C165.75 9.18034 166.014 9.03223 166.324 8.92285C166.639 8.81348 167.003 8.75879 167.418 8.75879C168.001 8.75879 168.509 8.87728 168.942 9.11426C169.38 9.35124 169.717 9.69531 169.954 10.1465C170.196 10.5977 170.316 11.1445 170.316 11.7871C170.316 12.4753 170.189 13.07 169.934 13.5713C169.678 14.0726 169.314 14.46 168.84 14.7334C168.37 15.0023 167.81 15.1367 167.158 15.1367C166.671 15.1367 166.222 15.0433 165.812 14.8564C165.401 14.6696 165.044 14.3916 164.738 14.0225C164.438 13.6533 164.203 13.1953 164.034 12.6484C163.866 12.097 163.781 11.4567 163.781 10.7275ZM167.145 14.1797C167.764 14.1797 168.261 13.9814 168.635 13.585C169.008 13.1885 169.195 12.5892 169.195 11.7871C169.195 11.1309 169.029 10.6113 168.696 10.2285C168.364 9.8457 167.862 9.6543 167.192 9.6543C166.737 9.6543 166.34 9.75 166.003 9.94141C165.666 10.1283 165.404 10.3652 165.217 10.6523C165.03 10.9395 164.937 11.2311 164.937 11.5273C164.937 11.8281 164.98 12.1335 165.066 12.4434C165.158 12.7533 165.294 13.0404 165.477 13.3047C165.659 13.569 165.889 13.7809 166.167 13.9404C166.445 14.0999 166.771 14.1797 167.145 14.1797Z" fill="white"/>
<rect y="30" width="171" height="6" rx="3" fill="white"/>
<rect y="30" width="137" height="6" rx="3" fill="url(#paint0_linear_1934_216)"/>
<path d="M195.915 15H194.808V7.91797C194.808 7.64909 194.808 7.41895 194.808 7.22754C194.812 7.03158 194.817 6.85384 194.821 6.69434C194.83 6.53027 194.842 6.36393 194.855 6.19531C194.714 6.34115 194.582 6.46647 194.459 6.57129C194.336 6.67155 194.183 6.79688 194.001 6.94727L192.859 7.86328L192.265 7.09082L194.972 5.00586H195.915V15ZM206.265 9.26465C206.265 9.87077 206.221 10.4609 206.135 11.0352C206.053 11.6094 205.909 12.1449 205.704 12.6416C205.504 13.1383 205.23 13.5736 204.884 13.9473C204.537 14.321 204.102 14.6149 203.578 14.8291C203.059 15.0387 202.437 15.1436 201.712 15.1436C201.516 15.1436 201.293 15.1299 201.042 15.1025C200.791 15.0798 200.586 15.0456 200.427 15V14.0156C200.595 14.0749 200.794 14.1227 201.021 14.1592C201.249 14.1911 201.473 14.207 201.691 14.207C202.544 14.207 203.214 14.0247 203.701 13.6602C204.189 13.291 204.54 12.792 204.754 12.1631C204.968 11.5296 205.089 10.8187 205.116 10.0303H205.034C204.897 10.249 204.717 10.4518 204.494 10.6387C204.275 10.821 204.009 10.9691 203.694 11.083C203.38 11.1924 203.013 11.2471 202.594 11.2471C202.015 11.2471 201.509 11.1286 201.076 10.8916C200.648 10.6546 200.313 10.3105 200.071 9.85938C199.834 9.4082 199.716 8.86361 199.716 8.22559C199.716 7.53743 199.846 6.94271 200.105 6.44141C200.37 5.93555 200.739 5.5459 201.213 5.27246C201.687 4.99902 202.245 4.8623 202.888 4.8623C203.38 4.8623 203.831 4.95573 204.241 5.14258C204.651 5.32943 205.007 5.6097 205.308 5.9834C205.613 6.35254 205.848 6.81055 206.012 7.35742C206.18 7.9043 206.265 8.54004 206.265 9.26465ZM202.888 5.82617C202.282 5.82617 201.789 6.02441 201.411 6.4209C201.037 6.81738 200.851 7.41439 200.851 8.21191C200.851 8.87272 201.012 9.39453 201.336 9.77734C201.66 10.1602 202.159 10.3516 202.833 10.3516C203.298 10.3516 203.699 10.2581 204.036 10.0713C204.378 9.88444 204.64 9.64746 204.822 9.36035C205.009 9.07324 205.103 8.7793 205.103 8.47852C205.103 8.17773 205.057 7.8724 204.966 7.5625C204.879 7.2526 204.745 6.96777 204.562 6.70801C204.38 6.44368 204.15 6.23177 203.872 6.07227C203.594 5.9082 203.266 5.82617 202.888 5.82617Z" fill="white"/>
<path d="M313.361 17H311.953L307.359 11.9277V17H306.197V7.00586H307.359V11.8457L311.837 7.00586H313.17L308.747 11.8594L313.361 17ZM317.374 9.38477C318.267 9.38477 318.93 9.58529 319.363 9.98633C319.796 10.3874 320.013 11.0277 320.013 11.9072V17H319.186L318.967 15.8926H318.912C318.702 16.166 318.484 16.3962 318.256 16.583C318.028 16.7653 317.764 16.9043 317.463 17C317.167 17.0911 316.802 17.1367 316.369 17.1367C315.913 17.1367 315.508 17.057 315.152 16.8975C314.801 16.738 314.523 16.4964 314.318 16.1729C314.118 15.8493 314.018 15.4391 314.018 14.9424C314.018 14.195 314.314 13.6208 314.906 13.2197C315.499 12.8187 316.401 12.5999 317.613 12.5635L318.905 12.5088V12.0508C318.905 11.4036 318.766 10.9502 318.488 10.6904C318.21 10.4307 317.818 10.3008 317.312 10.3008C316.921 10.3008 316.547 10.3577 316.191 10.4717C315.836 10.5856 315.499 10.7201 315.18 10.875L314.831 10.0137C315.168 9.84049 315.556 9.69238 315.993 9.56934C316.431 9.44629 316.891 9.38477 317.374 9.38477ZM318.892 13.3086L317.75 13.3564C316.816 13.3929 316.157 13.5456 315.774 13.8145C315.392 14.0833 315.2 14.4639 315.2 14.9561C315.2 15.3844 315.33 15.7012 315.59 15.9062C315.85 16.1113 316.194 16.2139 316.622 16.2139C317.287 16.2139 317.832 16.0293 318.256 15.6602C318.68 15.291 318.892 14.7373 318.892 13.999V13.3086ZM327.457 10.4717H324.989V17H323.868V10.4717H321.435V9.50781H327.457V10.4717ZM331.743 9.38477C332.636 9.38477 333.299 9.58529 333.732 9.98633C334.165 10.3874 334.382 11.0277 334.382 11.9072V17H333.555L333.336 15.8926H333.281C333.072 16.166 332.853 16.3962 332.625 16.583C332.397 16.7653 332.133 16.9043 331.832 17C331.536 17.0911 331.171 17.1367 330.738 17.1367C330.283 17.1367 329.877 17.057 329.521 16.8975C329.171 16.738 328.893 16.4964 328.688 16.1729C328.487 15.8493 328.387 15.4391 328.387 14.9424C328.387 14.195 328.683 13.6208 329.275 13.2197C329.868 12.8187 330.77 12.5999 331.982 12.5635L333.274 12.5088V12.0508C333.274 11.4036 333.135 10.9502 332.857 10.6904C332.579 10.4307 332.188 10.3008 331.682 10.3008C331.29 10.3008 330.916 10.3577 330.561 10.4717C330.205 10.5856 329.868 10.7201 329.549 10.875L329.2 10.0137C329.537 9.84049 329.925 9.69238 330.362 9.56934C330.8 9.44629 331.26 9.38477 331.743 9.38477ZM333.261 13.3086L332.119 13.3564C331.185 13.3929 330.526 13.5456 330.144 13.8145C329.761 14.0833 329.569 14.4639 329.569 14.9561C329.569 15.3844 329.699 15.7012 329.959 15.9062C330.219 16.1113 330.563 16.2139 330.991 16.2139C331.657 16.2139 332.201 16.0293 332.625 15.6602C333.049 15.291 333.261 14.7373 333.261 13.999V13.3086ZM342.339 17H341.184V10.458H338.907C338.816 11.6383 338.7 12.6501 338.559 13.4932C338.422 14.3317 338.249 15.0176 338.039 15.5508C337.834 16.0794 337.583 16.4691 337.287 16.7197C336.995 16.9658 336.647 17.0889 336.241 17.0889C336.118 17.0889 336.002 17.082 335.893 17.0684C335.783 17.0547 335.69 17.0319 335.612 17V16.1387C335.672 16.1569 335.733 16.1706 335.797 16.1797C335.865 16.1888 335.936 16.1934 336.009 16.1934C336.214 16.1934 336.401 16.109 336.569 15.9404C336.743 15.7673 336.897 15.5075 337.034 15.1611C337.175 14.8148 337.301 14.3773 337.41 13.8486C337.52 13.3154 337.615 12.6888 337.697 11.9688C337.784 11.2441 337.859 10.4238 337.923 9.50781H342.339V17ZM351.191 13.2402C351.191 13.8555 351.112 14.4046 350.952 14.8877C350.793 15.3708 350.562 15.7786 350.262 16.1113C349.961 16.444 349.596 16.6992 349.168 16.877C348.744 17.0501 348.263 17.1367 347.726 17.1367C347.224 17.1367 346.764 17.0501 346.345 16.877C345.93 16.6992 345.57 16.444 345.265 16.1113C344.964 15.7786 344.729 15.3708 344.561 14.8877C344.396 14.4046 344.314 13.8555 344.314 13.2402C344.314 12.4199 344.453 11.7227 344.731 11.1484C345.009 10.5697 345.406 10.1299 345.921 9.8291C346.44 9.52376 347.058 9.37109 347.773 9.37109C348.457 9.37109 349.054 9.52376 349.564 9.8291C350.079 10.1344 350.478 10.5765 350.761 11.1553C351.048 11.7295 351.191 12.4245 351.191 13.2402ZM345.49 13.2402C345.49 13.8418 345.57 14.3636 345.729 14.8057C345.889 15.2477 346.135 15.5895 346.468 15.8311C346.8 16.0726 347.229 16.1934 347.753 16.1934C348.272 16.1934 348.699 16.0726 349.031 15.8311C349.368 15.5895 349.617 15.2477 349.776 14.8057C349.936 14.3636 350.016 13.8418 350.016 13.2402C350.016 12.6432 349.936 12.1283 349.776 11.6953C349.617 11.2578 349.371 10.9206 349.038 10.6836C348.705 10.4466 348.275 10.3281 347.746 10.3281C346.967 10.3281 346.395 10.5856 346.03 11.1006C345.67 11.6156 345.49 12.3288 345.49 13.2402ZM357.699 9.50781V10.4717H354.295V17H353.153V9.50781H357.699Z" fill="white"/>
<rect x="187" y="30" width="171" height="6" rx="3" fill="white"/>
<rect x="290" y="30" width="68" height="6" rx="3" fill="url(#paint1_linear_1934_216)"/>
<path d="M7.63574 67L6.40527 63.8281H2.39941L1.17578 67H0L3.91016 56.9648H4.95605L8.83887 67H7.63574ZM6.05664 62.7959L4.8877 59.6445C4.86035 59.5625 4.81478 59.4281 4.75098 59.2412C4.69173 59.0544 4.63021 58.8607 4.56641 58.6602C4.5026 58.4596 4.4502 58.2979 4.40918 58.1748C4.36361 58.3617 4.31348 58.5485 4.25879 58.7354C4.20866 58.9176 4.15853 59.0885 4.1084 59.248C4.05827 59.403 4.01497 59.5352 3.97852 59.6445L2.78906 62.7959H6.05664ZM14.4238 59.5078H15.6748L12.4414 63.124L15.9346 67H14.6016L11.1973 63.1992V67H10.0557V59.5078H11.1973V63.1445L14.4238 59.5078ZM24.582 69.5908H23.4746V67H17.2881V59.5078H18.4297V66.0361H22.4014V59.5078H23.5361V66.0498H24.582V69.5908ZM27.1318 59.5078V64.2178C27.1318 64.3089 27.1296 64.4274 27.125 64.5732C27.1204 64.7145 27.1136 64.8672 27.1045 65.0312C27.0954 65.1908 27.0863 65.3457 27.0771 65.4961C27.0726 65.6419 27.0658 65.7627 27.0566 65.8584L31.1445 59.5078H32.5391V67H31.4795V62.4062C31.4795 62.2604 31.4818 62.0736 31.4863 61.8457C31.4909 61.6178 31.4977 61.3945 31.5068 61.1758C31.516 60.9525 31.5228 60.7793 31.5273 60.6562L27.4531 67H26.0518V59.5078H27.1318ZM36.0322 59.5078V64.2178C36.0322 64.3089 36.0299 64.4274 36.0254 64.5732C36.0208 64.7145 36.014 64.8672 36.0049 65.0312C35.9958 65.1908 35.9867 65.3457 35.9775 65.4961C35.973 65.6419 35.9661 65.7627 35.957 65.8584L40.0449 59.5078H41.4395V67H40.3799V62.4062C40.3799 62.2604 40.3822 62.0736 40.3867 61.8457C40.3913 61.6178 40.3981 61.3945 40.4072 61.1758C40.4163 60.9525 40.4232 60.7793 40.4277 60.6562L36.3535 67H34.9521V59.5078H36.0322Z" fill="white"/>
<path d="M162.216 65H155.667V64.0498L158.34 61.3359C158.837 60.8346 159.254 60.388 159.591 59.9961C159.933 59.6042 160.192 59.2191 160.37 58.8408C160.548 58.458 160.637 58.0387 160.637 57.583C160.637 57.0179 160.468 56.5872 160.131 56.291C159.798 55.9902 159.358 55.8398 158.812 55.8398C158.333 55.8398 157.909 55.9219 157.54 56.0859C157.171 56.25 156.793 56.4824 156.405 56.7832L155.797 56.0176C156.061 55.7943 156.348 55.596 156.658 55.4229C156.973 55.2497 157.308 55.113 157.663 55.0127C158.023 54.9124 158.406 54.8623 158.812 54.8623C159.427 54.8623 159.958 54.9694 160.404 55.1836C160.851 55.3978 161.195 55.7031 161.437 56.0996C161.683 56.4961 161.806 56.9678 161.806 57.5146C161.806 58.0433 161.701 58.5355 161.491 58.9912C161.282 59.4424 160.988 59.8913 160.609 60.3379C160.231 60.7799 159.789 61.2493 159.283 61.7461L157.109 63.9131V63.9609H162.216V65ZM170.727 62.6826H169.229V65H168.122V62.6826H163.289V61.7256L168.047 54.9512H169.229V61.6572H170.727V62.6826ZM168.122 61.6572V58.3896C168.122 58.139 168.124 57.9134 168.129 57.7129C168.133 57.5078 168.14 57.3187 168.149 57.1455C168.159 56.9678 168.165 56.7992 168.17 56.6396C168.179 56.4801 168.186 56.3229 168.19 56.168H168.136C168.049 56.3503 167.949 56.5439 167.835 56.749C167.726 56.9495 167.614 57.1296 167.5 57.2891L164.417 61.6572H168.122Z" fill="white"/>
<rect y="82" width="171" height="6" rx="3" fill="white"/>
<rect y="82" width="109" height="6" rx="3" fill="url(#paint2_linear_1934_216)"/>
<path d="M197.87 58.3369C197.87 58.7835 197.784 59.1709 197.61 59.499C197.437 59.8271 197.196 60.096 196.886 60.3057C196.576 60.5107 196.211 60.6543 195.792 60.7363V60.791C196.585 60.8913 197.18 61.1465 197.576 61.5566C197.977 61.9668 198.178 62.5046 198.178 63.1699C198.178 63.7487 198.041 64.2614 197.768 64.708C197.499 65.1546 197.084 65.5055 196.523 65.7607C195.967 66.0114 195.254 66.1367 194.384 66.1367C193.855 66.1367 193.365 66.0934 192.914 66.0068C192.467 65.9248 192.039 65.7858 191.629 65.5898V64.5234C192.044 64.7285 192.495 64.8903 192.982 65.0088C193.47 65.1227 193.942 65.1797 194.397 65.1797C195.309 65.1797 195.967 64.9997 196.373 64.6396C196.779 64.2751 196.981 63.7783 196.981 63.1494C196.981 62.7165 196.868 62.3678 196.64 62.1035C196.416 61.8346 196.093 61.6387 195.669 61.5156C195.25 61.388 194.744 61.3242 194.151 61.3242H193.153V60.3535H194.158C194.701 60.3535 195.161 60.2738 195.539 60.1143C195.917 59.9548 196.204 59.7314 196.4 59.4443C196.601 59.1527 196.701 58.8086 196.701 58.4121C196.701 57.9062 196.533 57.5166 196.195 57.2432C195.858 56.9652 195.4 56.8262 194.821 56.8262C194.466 56.8262 194.142 56.8626 193.851 56.9355C193.559 57.0085 193.285 57.1087 193.03 57.2363C192.775 57.3639 192.52 57.512 192.265 57.6807L191.69 56.9014C192.055 56.6188 192.499 56.375 193.023 56.1699C193.548 55.9648 194.142 55.8623 194.808 55.8623C195.828 55.8623 196.594 56.0947 197.104 56.5596C197.615 57.0244 197.87 57.6169 197.87 58.3369ZM207.251 66H200.702V65.0498L203.375 62.3359C203.872 61.8346 204.289 61.388 204.626 60.9961C204.968 60.6042 205.228 60.2191 205.405 59.8408C205.583 59.458 205.672 59.0387 205.672 58.583C205.672 58.0179 205.503 57.5872 205.166 57.291C204.833 56.9902 204.394 56.8398 203.847 56.8398C203.368 56.8398 202.944 56.9219 202.575 57.0859C202.206 57.25 201.828 57.4824 201.44 57.7832L200.832 57.0176C201.096 56.7943 201.383 56.596 201.693 56.4229C202.008 56.2497 202.343 56.113 202.698 56.0127C203.058 55.9124 203.441 55.8623 203.847 55.8623C204.462 55.8623 204.993 55.9694 205.439 56.1836C205.886 56.3978 206.23 56.7031 206.472 57.0996C206.718 57.4961 206.841 57.9678 206.841 58.5146C206.841 59.0433 206.736 59.5355 206.526 59.9912C206.317 60.4424 206.023 60.8913 205.645 61.3379C205.266 61.7799 204.824 62.2493 204.318 62.7461L202.145 64.9131V64.9609H207.251V66Z" fill="white"/>
<path d="M296.234 68V58.0059H303.679V68H302.53V59.0312H297.396V68H296.234ZM313.723 64.2402C313.723 64.8555 313.643 65.4046 313.483 65.8877C313.324 66.3708 313.094 66.7786 312.793 67.1113C312.492 67.444 312.128 67.6992 311.699 67.877C311.275 68.0501 310.795 68.1367 310.257 68.1367C309.756 68.1367 309.295 68.0501 308.876 67.877C308.461 67.6992 308.101 67.444 307.796 67.1113C307.495 66.7786 307.26 66.3708 307.092 65.8877C306.928 65.4046 306.846 64.8555 306.846 64.2402C306.846 63.4199 306.985 62.7227 307.263 62.1484C307.541 61.5697 307.937 61.1299 308.452 60.8291C308.972 60.5238 309.589 60.3711 310.305 60.3711C310.988 60.3711 311.585 60.5238 312.096 60.8291C312.611 61.1344 313.009 61.5765 313.292 62.1553C313.579 62.7295 313.723 63.4245 313.723 64.2402ZM308.021 64.2402C308.021 64.8418 308.101 65.3636 308.261 65.8057C308.42 66.2477 308.666 66.5895 308.999 66.8311C309.332 67.0726 309.76 67.1934 310.284 67.1934C310.804 67.1934 311.23 67.0726 311.562 66.8311C311.9 66.5895 312.148 66.2477 312.308 65.8057C312.467 65.3636 312.547 64.8418 312.547 64.2402C312.547 63.6432 312.467 63.1283 312.308 62.6953C312.148 62.2578 311.902 61.9206 311.569 61.6836C311.237 61.4466 310.806 61.3281 310.277 61.3281C309.498 61.3281 308.926 61.5856 308.562 62.1006C308.201 62.6156 308.021 63.3288 308.021 64.2402ZM324.594 60.5078V68H323.568V63.1191C323.568 62.9186 323.573 62.7158 323.582 62.5107C323.596 62.3011 323.612 62.0915 323.63 61.8818H323.589L321.101 68H320.137L317.71 61.8818H317.669C317.683 62.0915 317.692 62.3011 317.696 62.5107C317.705 62.7158 317.71 62.9323 317.71 63.1602V68H316.678V60.5078H318.202L320.622 66.6328L323.076 60.5078H324.594ZM334.412 64.2402C334.412 64.8555 334.332 65.4046 334.173 65.8877C334.013 66.3708 333.783 66.7786 333.482 67.1113C333.182 67.444 332.817 67.6992 332.389 67.877C331.965 68.0501 331.484 68.1367 330.946 68.1367C330.445 68.1367 329.985 68.0501 329.565 67.877C329.151 67.6992 328.791 67.444 328.485 67.1113C328.185 66.7786 327.95 66.3708 327.781 65.8877C327.617 65.4046 327.535 64.8555 327.535 64.2402C327.535 63.4199 327.674 62.7227 327.952 62.1484C328.23 61.5697 328.627 61.1299 329.142 60.8291C329.661 60.5238 330.279 60.3711 330.994 60.3711C331.678 60.3711 332.275 60.5238 332.785 60.8291C333.3 61.1344 333.699 61.5765 333.981 62.1553C334.269 62.7295 334.412 63.4245 334.412 64.2402ZM328.711 64.2402C328.711 64.8418 328.791 65.3636 328.95 65.8057C329.11 66.2477 329.356 66.5895 329.688 66.8311C330.021 67.0726 330.45 67.1934 330.974 67.1934C331.493 67.1934 331.919 67.0726 332.252 66.8311C332.589 66.5895 332.838 66.2477 332.997 65.8057C333.157 65.3636 333.236 64.8418 333.236 64.2402C333.236 63.6432 333.157 63.1283 332.997 62.6953C332.838 62.2578 332.591 61.9206 332.259 61.6836C331.926 61.4466 331.495 61.3281 330.967 61.3281C330.188 61.3281 329.616 61.5856 329.251 62.1006C328.891 62.6156 328.711 63.3288 328.711 64.2402ZM347.416 60.5078V67.0498H348.489V70.5771H347.348V68H337.374V60.5078H338.509V67.0361H341.824V60.5078H342.966V67.0361H346.288V60.5078H347.416ZM352.08 63.5977H354.377C355.015 63.5977 355.546 63.6774 355.97 63.8369C356.394 63.9964 356.71 64.2334 356.92 64.5479C357.134 64.8623 357.241 65.252 357.241 65.7168C357.241 66.1816 357.136 66.585 356.927 66.9268C356.722 67.2686 356.403 67.5329 355.97 67.7197C355.541 67.9066 354.988 68 354.309 68H350.938V60.5078H352.08V63.5977ZM356.1 65.7715C356.1 65.3112 355.936 64.9922 355.607 64.8145C355.284 64.6322 354.83 64.541 354.247 64.541H352.08V67.0771H354.254C354.801 67.0771 355.245 66.9769 355.587 66.7764C355.929 66.5713 356.1 66.2363 356.1 65.7715Z" fill="white"/>
<rect x="187" y="82" width="171" height="6" rx="3" fill="white"/>
<rect x="236" y="82" width="122" height="6" rx="3" fill="url(#paint3_linear_1934_216)"/>
<g clip-path="url(#clip0_1934_216)">
<path d="M3.97852 110.006C5.26823 110.006 6.20931 110.259 6.80176 110.765C7.39876 111.266 7.69727 111.986 7.69727 112.925C7.69727 113.349 7.62663 113.752 7.48535 114.135C7.34863 114.513 7.12533 114.848 6.81543 115.14C6.50553 115.427 6.09766 115.655 5.5918 115.823C5.09049 115.987 4.47526 116.069 3.74609 116.069H2.5293V120H1.36719V110.006H3.97852ZM3.86914 110.997H2.5293V115.071H3.61621C4.25423 115.071 4.78516 115.003 5.20898 114.866C5.63737 114.729 5.95866 114.508 6.17285 114.203C6.38704 113.893 6.49414 113.483 6.49414 112.973C6.49414 112.307 6.28223 111.813 5.8584 111.489C5.43457 111.161 4.77148 110.997 3.86914 110.997ZM12.4209 112.385C13.3141 112.385 13.9772 112.585 14.4102 112.986C14.8431 113.387 15.0596 114.028 15.0596 114.907V120H14.2324L14.0137 118.893H13.959C13.7493 119.166 13.5306 119.396 13.3027 119.583C13.0749 119.765 12.8105 119.904 12.5098 120C12.2135 120.091 11.849 120.137 11.416 120.137C10.9603 120.137 10.5547 120.057 10.1992 119.897C9.84831 119.738 9.57031 119.496 9.36523 119.173C9.16471 118.849 9.06445 118.439 9.06445 117.942C9.06445 117.195 9.36068 116.621 9.95312 116.22C10.5456 115.819 11.4479 115.6 12.6602 115.563L13.9521 115.509V115.051C13.9521 114.404 13.8132 113.95 13.5352 113.69C13.2572 113.431 12.8652 113.301 12.3594 113.301C11.9674 113.301 11.5938 113.358 11.2383 113.472C10.8828 113.586 10.5456 113.72 10.2266 113.875L9.87793 113.014C10.2152 112.84 10.6025 112.692 11.04 112.569C11.4775 112.446 11.9378 112.385 12.4209 112.385ZM13.9385 116.309L12.7969 116.356C11.8626 116.393 11.2041 116.546 10.8213 116.814C10.4385 117.083 10.2471 117.464 10.2471 117.956C10.2471 118.384 10.377 118.701 10.6367 118.906C10.8965 119.111 11.2406 119.214 11.6689 119.214C12.3343 119.214 12.8789 119.029 13.3027 118.66C13.7266 118.291 13.9385 117.737 13.9385 116.999V116.309ZM17.0078 115.502C17.0078 114.436 17.1104 113.526 17.3154 112.774C17.5205 112.018 17.8372 111.412 18.2656 110.956C18.6986 110.496 19.2546 110.181 19.9336 110.013C20.5169 109.853 21.1094 109.716 21.7109 109.603C22.3125 109.484 22.8981 109.382 23.4678 109.295L23.666 110.293C23.3789 110.334 23.0781 110.382 22.7637 110.437C22.4492 110.487 22.1348 110.541 21.8203 110.601C21.5059 110.655 21.2096 110.715 20.9316 110.778C20.6536 110.838 20.4076 110.899 20.1934 110.963C19.806 111.068 19.471 111.25 19.1885 111.51C18.9105 111.77 18.6895 112.127 18.5254 112.583C18.3659 113.039 18.2702 113.613 18.2383 114.306H18.3203C18.457 114.105 18.6439 113.907 18.8809 113.711C19.1178 113.515 19.4004 113.353 19.7285 113.226C20.0566 113.093 20.4258 113.027 20.8359 113.027C21.4831 113.027 22.0231 113.169 22.4561 113.451C22.889 113.729 23.2148 114.121 23.4336 114.627C23.6523 115.133 23.7617 115.725 23.7617 116.404C23.7617 117.22 23.6204 117.906 23.3379 118.462C23.0599 119.018 22.668 119.437 22.1621 119.72C21.6562 119.998 21.0615 120.137 20.3779 120.137C19.8493 120.137 19.3753 120.034 18.9561 119.829C18.5413 119.624 18.1882 119.323 17.8965 118.927C17.6094 118.53 17.3883 118.045 17.2334 117.471C17.083 116.896 17.0078 116.24 17.0078 115.502ZM20.4668 119.193C20.8997 119.193 21.2712 119.102 21.5811 118.92C21.8955 118.738 22.137 118.451 22.3057 118.059C22.4788 117.662 22.5654 117.147 22.5654 116.514C22.5654 115.721 22.4128 115.101 22.1074 114.654C21.8066 114.203 21.3236 113.978 20.6582 113.978C20.2435 113.978 19.8675 114.066 19.5303 114.244C19.193 114.417 18.9082 114.625 18.6758 114.866C18.4434 115.108 18.2747 115.324 18.1699 115.516C18.1699 115.98 18.2041 116.432 18.2725 116.869C18.3408 117.307 18.4593 117.701 18.6279 118.052C18.7965 118.403 19.029 118.681 19.3252 118.886C19.626 119.091 20.0065 119.193 20.4668 119.193ZM32.1836 116.24C32.1836 116.855 32.1038 117.405 31.9443 117.888C31.7848 118.371 31.5547 118.779 31.2539 119.111C30.9531 119.444 30.5885 119.699 30.1602 119.877C29.7363 120.05 29.2555 120.137 28.7178 120.137C28.2165 120.137 27.7562 120.05 27.3369 119.877C26.9222 119.699 26.5622 119.444 26.2568 119.111C25.9561 118.779 25.7214 118.371 25.5527 117.888C25.3887 117.405 25.3066 116.855 25.3066 116.24C25.3066 115.42 25.4456 114.723 25.7236 114.148C26.0016 113.57 26.3981 113.13 26.9131 112.829C27.4326 112.524 28.0501 112.371 28.7656 112.371C29.4492 112.371 30.0462 112.524 30.5566 112.829C31.0716 113.134 31.4704 113.576 31.7529 114.155C32.04 114.729 32.1836 115.424 32.1836 116.24ZM26.4824 116.24C26.4824 116.842 26.5622 117.364 26.7217 117.806C26.8812 118.248 27.1273 118.59 27.46 118.831C27.7926 119.073 28.221 119.193 28.7451 119.193C29.2646 119.193 29.6908 119.073 30.0234 118.831C30.3607 118.59 30.609 118.248 30.7686 117.806C30.9281 117.364 31.0078 116.842 31.0078 116.24C31.0078 115.643 30.9281 115.128 30.7686 114.695C30.609 114.258 30.363 113.921 30.0303 113.684C29.6976 113.447 29.2669 113.328 28.7383 113.328C27.959 113.328 27.387 113.586 27.0225 114.101C26.6624 114.616 26.4824 115.329 26.4824 116.24ZM39.252 113.472H36.7842V120H35.6631V113.472H33.2295V112.508H39.252V113.472ZM43.5381 112.385C44.4313 112.385 45.0944 112.585 45.5273 112.986C45.9603 113.387 46.1768 114.028 46.1768 114.907V120H45.3496L45.1309 118.893H45.0762C44.8665 119.166 44.6478 119.396 44.4199 119.583C44.1921 119.765 43.9277 119.904 43.627 120C43.3307 120.091 42.9661 120.137 42.5332 120.137C42.0775 120.137 41.6719 120.057 41.3164 119.897C40.9655 119.738 40.6875 119.496 40.4824 119.173C40.2819 118.849 40.1816 118.439 40.1816 117.942C40.1816 117.195 40.4779 116.621 41.0703 116.22C41.6628 115.819 42.5651 115.6 43.7773 115.563L45.0693 115.509V115.051C45.0693 114.404 44.9303 113.95 44.6523 113.69C44.3743 113.431 43.9824 113.301 43.4766 113.301C43.0846 113.301 42.7109 113.358 42.3555 113.472C42 113.586 41.6628 113.72 41.3438 113.875L40.9951 113.014C41.3324 112.84 41.7197 112.692 42.1572 112.569C42.5947 112.446 43.055 112.385 43.5381 112.385ZM45.0557 116.309L43.9141 116.356C42.9798 116.393 42.3213 116.546 41.9385 116.814C41.5557 117.083 41.3643 117.464 41.3643 117.956C41.3643 118.384 41.4941 118.701 41.7539 118.906C42.0137 119.111 42.3577 119.214 42.7861 119.214C43.4515 119.214 43.9961 119.029 44.4199 118.66C44.8438 118.291 45.0557 117.737 45.0557 116.999V116.309Z" fill="white"/>
<path d="M153.835 110.337C153.835 110.784 153.748 111.171 153.575 111.499C153.402 111.827 153.16 112.096 152.851 112.306C152.541 112.511 152.176 112.654 151.757 112.736V112.791C152.55 112.891 153.145 113.146 153.541 113.557C153.942 113.967 154.143 114.505 154.143 115.17C154.143 115.749 154.006 116.261 153.732 116.708C153.464 117.155 153.049 117.506 152.488 117.761C151.932 118.011 151.219 118.137 150.349 118.137C149.82 118.137 149.33 118.093 148.879 118.007C148.432 117.925 148.004 117.786 147.594 117.59V116.523C148.008 116.729 148.46 116.89 148.947 117.009C149.435 117.123 149.907 117.18 150.362 117.18C151.274 117.18 151.932 117 152.338 116.64C152.743 116.275 152.946 115.778 152.946 115.149C152.946 114.716 152.832 114.368 152.604 114.104C152.381 113.835 152.058 113.639 151.634 113.516C151.215 113.388 150.709 113.324 150.116 113.324H149.118V112.354H150.123C150.665 112.354 151.126 112.274 151.504 112.114C151.882 111.955 152.169 111.731 152.365 111.444C152.566 111.153 152.666 110.809 152.666 110.412C152.666 109.906 152.497 109.517 152.16 109.243C151.823 108.965 151.365 108.826 150.786 108.826C150.431 108.826 150.107 108.863 149.815 108.936C149.524 109.008 149.25 109.109 148.995 109.236C148.74 109.364 148.485 109.512 148.229 109.681L147.655 108.901C148.02 108.619 148.464 108.375 148.988 108.17C149.512 107.965 150.107 107.862 150.772 107.862C151.793 107.862 152.559 108.095 153.069 108.56C153.58 109.024 153.835 109.617 153.835 110.337ZM159.892 118H158.784V110.918C158.784 110.649 158.784 110.419 158.784 110.228C158.789 110.032 158.793 109.854 158.798 109.694C158.807 109.53 158.818 109.364 158.832 109.195C158.691 109.341 158.559 109.466 158.436 109.571C158.312 109.672 158.16 109.797 157.978 109.947L156.836 110.863L156.241 110.091L158.948 108.006H159.892V118ZM170.282 112.989C170.282 113.8 170.221 114.525 170.098 115.163C169.975 115.801 169.781 116.341 169.517 116.783C169.252 117.225 168.91 117.562 168.491 117.795C168.072 118.023 167.568 118.137 166.98 118.137C166.238 118.137 165.622 117.934 165.135 117.528C164.652 117.123 164.289 116.537 164.048 115.771C163.811 115.001 163.692 114.074 163.692 112.989C163.692 111.923 163.799 111.007 164.014 110.241C164.232 109.471 164.583 108.881 165.066 108.471C165.549 108.056 166.188 107.849 166.98 107.849C167.732 107.849 168.352 108.054 168.84 108.464C169.327 108.869 169.69 109.457 169.927 110.228C170.164 110.993 170.282 111.914 170.282 112.989ZM164.834 112.989C164.834 113.919 164.905 114.694 165.046 115.313C165.187 115.933 165.415 116.398 165.729 116.708C166.049 117.013 166.465 117.166 166.98 117.166C167.495 117.166 167.91 117.013 168.225 116.708C168.544 116.403 168.774 115.94 168.915 115.32C169.061 114.701 169.134 113.924 169.134 112.989C169.134 112.073 169.063 111.308 168.922 110.692C168.781 110.073 168.553 109.608 168.238 109.298C167.924 108.983 167.505 108.826 166.98 108.826C166.456 108.826 166.037 108.983 165.723 109.298C165.408 109.608 165.18 110.073 165.039 110.692C164.902 111.308 164.834 112.073 164.834 112.989Z" fill="white"/>
</g>
<rect y="134" width="171" height="6" rx="3" fill="white"/>
<rect y="134" width="120" height="6" rx="3" fill="url(#paint4_linear_1934_216)"/>
<path d="M198.239 118H191.69V117.05L194.363 114.336C194.86 113.835 195.277 113.388 195.614 112.996C195.956 112.604 196.216 112.219 196.394 111.841C196.571 111.458 196.66 111.039 196.66 110.583C196.66 110.018 196.492 109.587 196.154 109.291C195.822 108.99 195.382 108.84 194.835 108.84C194.356 108.84 193.933 108.922 193.563 109.086C193.194 109.25 192.816 109.482 192.429 109.783L191.82 109.018C192.085 108.794 192.372 108.596 192.682 108.423C192.996 108.25 193.331 108.113 193.687 108.013C194.047 107.912 194.429 107.862 194.835 107.862C195.45 107.862 195.981 107.969 196.428 108.184C196.874 108.398 197.218 108.703 197.46 109.1C197.706 109.496 197.829 109.968 197.829 110.515C197.829 111.043 197.724 111.535 197.515 111.991C197.305 112.442 197.011 112.891 196.633 113.338C196.255 113.78 195.812 114.249 195.307 114.746L193.133 116.913V116.961H198.239V118ZM201.994 118L206.096 109.045H200.647V108.006H207.312V108.881L203.238 118H201.994ZM216.317 112.989C216.317 113.8 216.256 114.525 216.133 115.163C216.01 115.801 215.816 116.341 215.552 116.783C215.287 117.225 214.946 117.562 214.526 117.795C214.107 118.023 213.604 118.137 213.016 118.137C212.273 118.137 211.658 117.934 211.17 117.528C210.687 117.123 210.325 116.537 210.083 115.771C209.846 115.001 209.728 114.074 209.728 112.989C209.728 111.923 209.835 111.007 210.049 110.241C210.268 109.471 210.618 108.881 211.102 108.471C211.585 108.056 212.223 107.849 213.016 107.849C213.768 107.849 214.387 108.054 214.875 108.464C215.363 108.869 215.725 109.457 215.962 110.228C216.199 110.993 216.317 111.914 216.317 112.989ZM210.869 112.989C210.869 113.919 210.94 114.694 211.081 115.313C211.222 115.933 211.45 116.398 211.765 116.708C212.084 117.013 212.501 117.166 213.016 117.166C213.531 117.166 213.945 117.013 214.26 116.708C214.579 116.403 214.809 115.94 214.95 115.32C215.096 114.701 215.169 113.924 215.169 112.989C215.169 112.073 215.098 111.308 214.957 110.692C214.816 110.073 214.588 109.608 214.273 109.298C213.959 108.983 213.54 108.826 213.016 108.826C212.492 108.826 212.072 108.983 211.758 109.298C211.443 109.608 211.215 110.073 211.074 110.692C210.938 111.308 210.869 112.073 210.869 112.989Z" fill="white"/>
<path d="M320.369 110.006H321.456V115.782C321.456 116.001 321.454 116.24 321.449 116.5C321.445 116.755 321.438 117.006 321.429 117.252C321.42 117.498 321.408 117.721 321.395 117.922C321.385 118.122 321.376 118.277 321.367 118.387H321.422L326.986 110.006H328.265V120H327.178V114.292C327.178 114.05 327.182 113.795 327.191 113.526C327.201 113.253 327.21 112.989 327.219 112.733C327.232 112.478 327.246 112.25 327.26 112.05C327.273 111.845 327.283 111.688 327.287 111.578H327.226L321.654 120H320.369V110.006ZM336.367 112.508V113.472H332.963V120H331.821V112.508H336.367ZM342.385 112.371C343.319 112.371 344.064 112.692 344.62 113.335C345.176 113.978 345.454 114.944 345.454 116.233C345.454 117.086 345.326 117.801 345.071 118.38C344.816 118.959 344.456 119.396 343.991 119.692C343.531 119.989 342.986 120.137 342.357 120.137C341.961 120.137 341.612 120.084 341.312 119.979C341.011 119.875 340.753 119.733 340.539 119.556C340.325 119.378 340.147 119.184 340.006 118.975H339.924C339.938 119.152 339.953 119.367 339.972 119.617C339.994 119.868 340.006 120.087 340.006 120.273V123.35H338.864V112.508H339.801L339.951 113.615H340.006C340.152 113.387 340.329 113.18 340.539 112.993C340.749 112.802 341.004 112.651 341.305 112.542C341.61 112.428 341.97 112.371 342.385 112.371ZM342.187 113.328C341.667 113.328 341.248 113.428 340.929 113.629C340.614 113.829 340.384 114.13 340.238 114.531C340.092 114.928 340.015 115.427 340.006 116.028V116.247C340.006 116.881 340.074 117.416 340.211 117.854C340.352 118.291 340.582 118.624 340.901 118.852C341.225 119.079 341.658 119.193 342.2 119.193C342.665 119.193 343.052 119.068 343.362 118.817C343.672 118.567 343.902 118.218 344.053 117.771C344.208 117.32 344.285 116.803 344.285 116.22C344.285 115.336 344.112 114.634 343.766 114.114C343.424 113.59 342.897 113.328 342.187 113.328ZM348.437 120V112.508H349.578V115.598H351.629C352.267 115.598 352.791 115.677 353.201 115.837C353.616 115.996 353.924 116.233 354.124 116.548C354.325 116.862 354.425 117.252 354.425 117.717C354.425 118.182 354.325 118.585 354.124 118.927C353.928 119.269 353.618 119.533 353.194 119.72C352.775 119.907 352.228 120 351.554 120H348.437ZM349.578 119.077H351.444C352.009 119.077 352.461 118.977 352.798 118.776C353.135 118.576 353.304 118.241 353.304 117.771C353.304 117.311 353.146 116.992 352.832 116.814C352.518 116.632 352.066 116.541 351.479 116.541H349.578V119.077ZM355.662 120V112.508H356.797V120H355.662Z" fill="white"/>
<rect x="187" y="134" width="171" height="6" rx="3" fill="white"/>
<rect x="279" y="134" width="79" height="6" rx="3" fill="url(#paint5_linear_1934_216)"/>
<defs>
<linearGradient id="paint0_linear_1934_216" x1="44.9582" y1="31.417" x2="45.0474" y2="36.8216" gradientUnits="userSpaceOnUse">
<stop stop-color="#0035EF"/>
<stop offset="1" stop-color="#001E89"/>
</linearGradient>
<linearGradient id="paint1_linear_1934_216" x1="324" y1="30" x2="324" y2="36" gradientUnits="userSpaceOnUse">
<stop stop-color="#9BCFFF"/>
<stop offset="1" stop-color="#3F96E7"/>
</linearGradient>
<linearGradient id="paint2_linear_1934_216" x1="35.7697" y1="83.417" x2="35.8818" y2="88.8208" gradientUnits="userSpaceOnUse">
<stop stop-color="#0035EF"/>
<stop offset="1" stop-color="#001E89"/>
</linearGradient>
<linearGradient id="paint3_linear_1934_216" x1="297" y1="82" x2="297" y2="88" gradientUnits="userSpaceOnUse">
<stop stop-color="#9BCFFF"/>
<stop offset="1" stop-color="#3F96E7"/>
</linearGradient>
<linearGradient id="paint4_linear_1934_216" x1="39.3795" y1="135.417" x2="39.4813" y2="140.821" gradientUnits="userSpaceOnUse">
<stop stop-color="#0035EF"/>
<stop offset="1" stop-color="#001E89"/>
</linearGradient>
<linearGradient id="paint5_linear_1934_216" x1="318.5" y1="134" x2="318.5" y2="140" gradientUnits="userSpaceOnUse">
<stop stop-color="#9BCFFF"/>
<stop offset="1" stop-color="#3F96E7"/>
</linearGradient>
<clipPath id="clip0_1934_216">
<rect width="171" height="16" fill="white" transform="translate(0 104)"/>
</clipPath>
</defs>
</svg>
